<mxfile host="app.diagrams.net" modified="2022-12-08T08:59:45.137Z" agent="5.0 (Windows NT 10.0; WOW64) AppleWebKit/537.36 (KHTML, like Gecko) Chrome/87.0.4280.66 Safari/537.36" version="20.6.0" etag="u5-8NQZ5DKulZmxF78kc" type="github">
  <diagram id="_DEBBaLEdEsoZ4SGeQ32" name="第 1 页">
    <mxGraphModel dx="977" dy="514" grid="1" gridSize="10" guides="1" tooltips="1" connect="1" arrows="1" fold="1" page="1" pageScale="1" pageWidth="827" pageHeight="1169" math="0" shadow="0">
      <root>
        <mxCell id="0" />
        <mxCell id="1" parent="0" />
        <mxCell id="0hYb3eVDAZXAuF7V7g39-1" value="订前restful" style="shape=umlLifeline;perimeter=lifelinePerimeter;whiteSpace=wrap;html=1;container=1;collapsible=0;recursiveResize=0;outlineConnect=0;" vertex="1" parent="1">
          <mxGeometry x="174" y="70" width="100" height="890" as="geometry" />
        </mxCell>
        <mxCell id="0hYb3eVDAZXAuF7V7g39-5" value="" style="html=1;points=[];perimeter=orthogonalPerimeter;" vertex="1" parent="0hYb3eVDAZXAuF7V7g39-1">
          <mxGeometry x="45" y="80" width="10" height="780" as="geometry" />
        </mxCell>
        <mxCell id="0hYb3eVDAZXAuF7V7g39-36" value="" style="html=1;points=[];perimeter=orthogonalPerimeter;strokeColor=#000000;fontColor=#000000;" vertex="1" parent="0hYb3eVDAZXAuF7V7g39-1">
          <mxGeometry x="50" y="130" width="10" height="40" as="geometry" />
        </mxCell>
        <mxCell id="0hYb3eVDAZXAuF7V7g39-37" value="查询支付相关跳转配置" style="edgeStyle=orthogonalEdgeStyle;html=1;align=left;spacingLeft=2;endArrow=block;rounded=0;entryX=1;entryY=0;labelBackgroundColor=none;strokeColor=#000000;fontColor=#000000;" edge="1" target="0hYb3eVDAZXAuF7V7g39-36" parent="0hYb3eVDAZXAuF7V7g39-1">
          <mxGeometry relative="1" as="geometry">
            <mxPoint x="55" y="110" as="sourcePoint" />
            <Array as="points">
              <mxPoint x="85" y="110" />
            </Array>
          </mxGeometry>
        </mxCell>
        <mxCell id="0hYb3eVDAZXAuF7V7g39-2" value="售卖" style="shape=umlLifeline;perimeter=lifelinePerimeter;whiteSpace=wrap;html=1;container=1;collapsible=0;recursiveResize=0;outlineConnect=0;" vertex="1" parent="1">
          <mxGeometry x="380" y="70" width="100" height="890" as="geometry" />
        </mxCell>
        <mxCell id="0hYb3eVDAZXAuF7V7g39-6" value="" style="html=1;points=[];perimeter=orthogonalPerimeter;" vertex="1" parent="0hYb3eVDAZXAuF7V7g39-2">
          <mxGeometry x="45" y="179" width="10" height="640" as="geometry" />
        </mxCell>
        <mxCell id="0hYb3eVDAZXAuF7V7g39-18" value="" style="html=1;points=[];perimeter=orthogonalPerimeter;" vertex="1" parent="0hYb3eVDAZXAuF7V7g39-2">
          <mxGeometry x="50" y="479" width="10" height="40" as="geometry" />
        </mxCell>
        <mxCell id="0hYb3eVDAZXAuF7V7g39-19" value="&lt;font color=&quot;#ff0000&quot;&gt;检查快照结果，失败阻断下单&lt;/font&gt;" style="edgeStyle=orthogonalEdgeStyle;html=1;align=left;spacingLeft=2;endArrow=block;rounded=0;entryX=1;entryY=0;" edge="1" target="0hYb3eVDAZXAuF7V7g39-18" parent="0hYb3eVDAZXAuF7V7g39-2">
          <mxGeometry relative="1" as="geometry">
            <mxPoint x="55" y="459" as="sourcePoint" />
            <Array as="points">
              <mxPoint x="85" y="459" />
            </Array>
          </mxGeometry>
        </mxCell>
        <mxCell id="0hYb3eVDAZXAuF7V7g39-24" value="" style="html=1;points=[];perimeter=orthogonalPerimeter;strokeColor=#000000;fontColor=#000000;" vertex="1" parent="0hYb3eVDAZXAuF7V7g39-2">
          <mxGeometry x="50" y="649" width="10" height="40" as="geometry" />
        </mxCell>
        <mxCell id="0hYb3eVDAZXAuF7V7g39-25" value="检查提交结果，失败阻断下单" style="edgeStyle=orthogonalEdgeStyle;html=1;align=left;spacingLeft=2;endArrow=block;rounded=0;entryX=1;entryY=0;strokeColor=#000000;fontColor=#FF0000;" edge="1" target="0hYb3eVDAZXAuF7V7g39-24" parent="0hYb3eVDAZXAuF7V7g39-2">
          <mxGeometry relative="1" as="geometry">
            <mxPoint x="55" y="629" as="sourcePoint" />
            <Array as="points">
              <mxPoint x="85" y="629" />
            </Array>
          </mxGeometry>
        </mxCell>
        <mxCell id="0hYb3eVDAZXAuF7V7g39-26" value="" style="html=1;points=[];perimeter=orthogonalPerimeter;strokeColor=#000000;fontColor=#FF0000;" vertex="1" parent="0hYb3eVDAZXAuF7V7g39-2">
          <mxGeometry x="50" y="216" width="10" height="40" as="geometry" />
        </mxCell>
        <mxCell id="0hYb3eVDAZXAuF7V7g39-27" value="查询缓存booking信息，缓存过期阻断下单" style="edgeStyle=orthogonalEdgeStyle;html=1;align=left;spacingLeft=2;endArrow=block;rounded=0;entryX=1;entryY=0;strokeColor=#000000;fontColor=#FF0000;" edge="1" target="0hYb3eVDAZXAuF7V7g39-26" parent="0hYb3eVDAZXAuF7V7g39-2">
          <mxGeometry relative="1" as="geometry">
            <mxPoint x="55" y="196" as="sourcePoint" />
            <Array as="points">
              <mxPoint x="85" y="196" />
            </Array>
          </mxGeometry>
        </mxCell>
        <mxCell id="0hYb3eVDAZXAuF7V7g39-3" value="订单服务" style="shape=umlLifeline;perimeter=lifelinePerimeter;whiteSpace=wrap;html=1;container=1;collapsible=0;recursiveResize=0;outlineConnect=0;" vertex="1" parent="1">
          <mxGeometry x="600" y="70" width="100" height="890" as="geometry" />
        </mxCell>
        <mxCell id="0hYb3eVDAZXAuF7V7g39-9" value="" style="html=1;points=[];perimeter=orthogonalPerimeter;" vertex="1" parent="0hYb3eVDAZXAuF7V7g39-3">
          <mxGeometry x="45" y="279" width="10" height="50" as="geometry" />
        </mxCell>
        <mxCell id="0hYb3eVDAZXAuF7V7g39-11" value="返回单号" style="html=1;verticalAlign=bottom;endArrow=open;dashed=1;endSize=8;exitX=0;exitY=0.95;rounded=0;" edge="1" parent="0hYb3eVDAZXAuF7V7g39-3">
          <mxGeometry relative="1" as="geometry">
            <mxPoint x="-160" y="329" as="targetPoint" />
            <mxPoint x="45" y="329" as="sourcePoint" />
          </mxGeometry>
        </mxCell>
        <mxCell id="0hYb3eVDAZXAuF7V7g39-15" value="" style="html=1;points=[];perimeter=orthogonalPerimeter;" vertex="1" parent="0hYb3eVDAZXAuF7V7g39-3">
          <mxGeometry x="45" y="364" width="10" height="65" as="geometry" />
        </mxCell>
        <mxCell id="0hYb3eVDAZXAuF7V7g39-20" value="" style="html=1;points=[];perimeter=orthogonalPerimeter;fontColor=#000000;strokeColor=#000000;" vertex="1" parent="0hYb3eVDAZXAuF7V7g39-3">
          <mxGeometry x="45" y="549" width="10" height="50" as="geometry" />
        </mxCell>
        <mxCell id="0hYb3eVDAZXAuF7V7g39-4" value="支付" style="shape=umlLifeline;perimeter=lifelinePerimeter;whiteSpace=wrap;html=1;container=1;collapsible=0;recursiveResize=0;outlineConnect=0;" vertex="1" parent="1">
          <mxGeometry x="819" y="70" width="100" height="890" as="geometry" />
        </mxCell>
        <mxCell id="0hYb3eVDAZXAuF7V7g39-28" value="" style="html=1;points=[];perimeter=orthogonalPerimeter;strokeColor=#000000;fontColor=#000000;" vertex="1" parent="0hYb3eVDAZXAuF7V7g39-4">
          <mxGeometry x="45" y="721" width="10" height="65" as="geometry" />
        </mxCell>
        <mxCell id="0hYb3eVDAZXAuF7V7g39-7" value="提交订单&lt;br&gt;临时单号+留言+支付跳转信息" style="html=1;verticalAlign=bottom;endArrow=block;entryX=0;entryY=0;rounded=0;" edge="1" parent="1">
          <mxGeometry relative="1" as="geometry">
            <mxPoint x="230" y="256" as="sourcePoint" />
            <mxPoint x="425" y="256.0000000000023" as="targetPoint" />
          </mxGeometry>
        </mxCell>
        <mxCell id="0hYb3eVDAZXAuF7V7g39-10" value="生成订单号" style="html=1;verticalAlign=bottom;endArrow=block;entryX=0;entryY=0;rounded=0;" edge="1" target="0hYb3eVDAZXAuF7V7g39-9" parent="1">
          <mxGeometry relative="1" as="geometry">
            <mxPoint x="440" y="349" as="sourcePoint" />
          </mxGeometry>
        </mxCell>
        <mxCell id="0hYb3eVDAZXAuF7V7g39-16" value="提交交易快照" style="html=1;verticalAlign=bottom;endArrow=block;entryX=0;entryY=0;rounded=0;" edge="1" target="0hYb3eVDAZXAuF7V7g39-15" parent="1">
          <mxGeometry relative="1" as="geometry">
            <mxPoint x="440" y="434" as="sourcePoint" />
          </mxGeometry>
        </mxCell>
        <mxCell id="0hYb3eVDAZXAuF7V7g39-17" value="返回提交结果，成功or失败" style="html=1;verticalAlign=bottom;endArrow=open;dashed=1;endSize=8;exitX=0;exitY=0.95;rounded=0;" edge="1" source="0hYb3eVDAZXAuF7V7g39-15" parent="1">
          <mxGeometry relative="1" as="geometry">
            <mxPoint x="440" y="496" as="targetPoint" />
          </mxGeometry>
        </mxCell>
        <mxCell id="0hYb3eVDAZXAuF7V7g39-21" value="提交用户单（新接口：单号+快照id）" style="html=1;verticalAlign=bottom;endArrow=block;entryX=0;entryY=0;rounded=0;fontColor=#000000;strokeColor=#000000;" edge="1" target="0hYb3eVDAZXAuF7V7g39-20" parent="1">
          <mxGeometry relative="1" as="geometry">
            <mxPoint x="440" y="619" as="sourcePoint" />
          </mxGeometry>
        </mxCell>
        <mxCell id="0hYb3eVDAZXAuF7V7g39-23" value="返回提交结果，成功or失败" style="html=1;verticalAlign=bottom;endArrow=open;dashed=1;endSize=8;rounded=0;strokeColor=#000000;fontColor=#000000;" edge="1" parent="1">
          <mxGeometry relative="1" as="geometry">
            <mxPoint x="640" y="668" as="sourcePoint" />
            <mxPoint x="440" y="668" as="targetPoint" />
          </mxGeometry>
        </mxCell>
        <mxCell id="0hYb3eVDAZXAuF7V7g39-29" value="创支付单，提交支付参数" style="html=1;verticalAlign=bottom;endArrow=block;entryX=0;entryY=0;rounded=0;strokeColor=#000000;fontColor=#000000;" edge="1" target="0hYb3eVDAZXAuF7V7g39-28" parent="1">
          <mxGeometry relative="1" as="geometry">
            <mxPoint x="440" y="791" as="sourcePoint" />
          </mxGeometry>
        </mxCell>
        <mxCell id="0hYb3eVDAZXAuF7V7g39-30" value="返回收银台信息" style="html=1;verticalAlign=bottom;endArrow=open;dashed=1;endSize=8;exitX=0;exitY=0.95;rounded=0;strokeColor=#000000;fontColor=#000000;" edge="1" parent="1">
          <mxGeometry relative="1" as="geometry">
            <mxPoint x="440" y="848" as="targetPoint" />
            <mxPoint x="872" y="848" as="sourcePoint" />
          </mxGeometry>
        </mxCell>
        <mxCell id="0hYb3eVDAZXAuF7V7g39-31" value="" style="shape=umlLifeline;participant=umlActor;perimeter=lifelinePerimeter;whiteSpace=wrap;html=1;container=1;collapsible=0;recursiveResize=0;verticalAlign=top;spacingTop=36;outlineConnect=0;strokeColor=#000000;fontColor=#000000;" vertex="1" parent="1">
          <mxGeometry x="60" y="80" width="20" height="880" as="geometry" />
        </mxCell>
        <mxCell id="0hYb3eVDAZXAuF7V7g39-32" value="点击“预约顺风车&lt;br&gt;”" style="html=1;verticalAlign=bottom;endArrow=block;rounded=0;strokeColor=#000000;fontColor=#000000;labelBackgroundColor=none;" edge="1" parent="0hYb3eVDAZXAuF7V7g39-31">
          <mxGeometry width="80" relative="1" as="geometry">
            <mxPoint x="10" y="90" as="sourcePoint" />
            <mxPoint x="160" y="90" as="targetPoint" />
          </mxGeometry>
        </mxCell>
        <mxCell id="0hYb3eVDAZXAuF7V7g39-33" value="返回单号&amp;amp;收银台信息" style="html=1;verticalAlign=bottom;endArrow=open;dashed=1;endSize=8;rounded=0;strokeColor=#000000;fontColor=#000000;" edge="1" parent="1">
          <mxGeometry relative="1" as="geometry">
            <mxPoint x="420" y="876" as="sourcePoint" />
            <mxPoint x="230" y="876" as="targetPoint" />
          </mxGeometry>
        </mxCell>
        <mxCell id="0hYb3eVDAZXAuF7V7g39-34" value="跳转至收银台or失败弹窗" style="html=1;verticalAlign=bottom;endArrow=open;dashed=1;endSize=8;rounded=0;strokeColor=#000000;fontColor=#000000;" edge="1" parent="1">
          <mxGeometry relative="1" as="geometry">
            <mxPoint x="220" y="900" as="sourcePoint" />
            <mxPoint x="69.5" y="900" as="targetPoint" />
          </mxGeometry>
        </mxCell>
      </root>
    </mxGraphModel>
  </diagram>
</mxfile>
